# Blender v2.93.3 OBJ File: 'castlewall.blend'
# www.blender.org
mtllib castlewall.mtl
o castle_wall.001_Cube.002
v -44.246288 6.327803 30.837147
v -44.246288 26.735380 30.837149
v -52.409317 26.735380 30.837149
v -52.409317 6.327803 30.837147
v -52.409321 26.735394 -50.793163
v -52.409321 6.327816 -50.793167
v -44.236088 26.735394 -50.793163
v -44.236088 6.327816 -50.793167
v -44.236088 6.327815 -42.630135
v -44.236088 26.735394 -42.630131
v 29.220985 26.735394 -50.793163
v 29.220985 6.327816 -50.793159
v 29.220985 26.735394 -42.630131
v 29.220985 6.327815 -42.630127
v 29.220985 6.327803 30.837128
v 29.220985 26.735380 30.837145
v 29.220985 26.735380 39.000164
v 29.220985 6.327802 39.000160
v -52.409321 26.735380 39.000187
v -52.409321 6.327802 39.000183
v -52.409321 26.735380 30.826956
v -52.409321 6.327803 30.826954
v -44.246292 6.327803 30.826950
v -44.246292 26.735380 30.826952
v 38.825562 26.735394 -50.793163
v 38.825562 6.327816 -50.793167
v 38.815361 26.735380 39.000172
v 38.815361 6.327802 39.000168
vt 1.437218 -1.000019
vt 1.905828 -1.000019
vt 1.905828 -0.812575
vt 1.437218 -0.812575
vt 0.500000 -0.437218
vt 0.500000 0.031391
vt -1.374437 0.031391
vt -1.374437 -0.437218
vt 0.500000 -1.374437
vt 0.500000 -0.905828
vt 0.312323 -0.905828
vt 0.312323 -1.374437
vt 0.312556 0.031391
vt 0.312556 0.500000
vt -1.374437 0.500000
vt -1.374437 0.031391
vt 0.500000 0.500000
vt 2.374437 0.500000
vt 2.374437 0.687677
vt 2.186992 0.687677
vt 0.500000 0.687441
vt 0.500000 2.374437
vt -1.374437 2.374437
vt -1.374437 2.186993
vt 0.312556 2.186759
vt 0.500000 2.186759
vt 0.500000 0.031391
vt 0.500000 0.500000
vt -1.374437 -0.905828
vt -1.374437 -1.374437
vt 1.437218 -0.812576
vt 0.968609 -0.812576
vt 0.968609 -1.000020
vt 1.437218 -1.000020
vt 2.186759 -0.437218
vt 2.186759 0.031391
vt 0.500000 0.031391
vt 0.500000 -0.437218
vt 2.374437 2.374437
vt 2.186992 2.374437
vt 0.500000 0.500000
vt 0.312556 0.500000
vt 0.968609 -1.187464
vt 1.437218 -1.187464
vt 1.437218 -1.000020
vt 0.968609 -1.000020
vt 0.500000 -0.905828
vt 0.500000 -0.437218
vt -1.374437 -0.437218
vt -1.374437 -0.905828
vt 0.500000 -1.000252
vt 0.968609 -1.000252
vt 0.968609 -0.812576
vt 0.500000 -0.812576
vt 2.186996 0.031391
vt 2.186996 0.500000
vt 0.500000 0.500000
vt 0.500000 0.031391
vt 2.374437 -0.624895
vt 0.500000 -0.624895
vt 0.687444 -0.812572
vt 2.374437 -0.812340
vt 0.500000 -0.624895
vt 2.374437 -0.624895
vt 2.374437 -0.437454
vt 0.687444 -0.437218
vt 0.500000 -0.437218
vt 2.374437 0.031391
vt 2.374437 0.500000
vt -0.899808 -0.419424
vt -0.325438 -0.419424
vt -0.325438 -0.189388
vt -0.899808 -0.189388
vt -0.899808 1.419424
vt -0.899808 0.845053
vt 1.627422 0.845053
vt 1.627422 1.419424
vt -0.899808 -0.189388
vt 1.627422 -0.189388
vt 1.627422 0.040361
vt -0.899808 0.040647
vt -0.899808 0.845053
vt -0.899808 0.270683
vt 1.627422 0.270683
vt 1.627422 0.845053
vt 1.627422 0.040647
vt -0.899808 0.270396
vt -0.899808 0.040647
vt -0.325438 -0.419136
vt 0.248933 -0.419136
vt 0.248933 -0.189388
vt -0.325438 -0.189388
vn 0.0000 -0.0000 1.0000
vn -1.0000 -0.0000 0.0000
vn 0.0000 0.0000 -1.0000
vn 1.0000 -0.0000 0.0001
vn 0.0000 -1.0000 -0.0000
vn -0.0000 1.0000 0.0000
vn 1.0000 0.0000 0.0000
vn 0.0001 0.0000 -1.0000
usemtl Material.002
s 1
f 1/1/1 2/2/1 3/3/1 4/4/1
f 4/5/2 3/6/2 5/7/2 6/8/2
f 6/9/3 5/10/3 7/11/3 8/12/3
f 9/13/4 10/14/4 2/15/4 1/16/4
f 4/17/5 6/18/5 8/19/5 9/20/5 1/21/5
f 5/22/6 3/23/6 2/24/6 10/25/6 7/26/6
f 8/27/7 7/28/7 10/14/7 9/13/7
usemtl Material.001
f 8/12/3 7/11/3 11/29/3 12/30/3
f 12/31/7 11/32/7 13/33/7 14/34/7
f 14/35/1 13/36/1 10/37/1 9/38/1
f 8/19/5 12/39/5 14/40/5 9/20/5
f 11/41/6 7/26/6 10/25/6 13/42/6
usemtl Material.004
f 15/43/7 16/44/7 17/45/7 18/46/7
f 18/47/1 17/48/1 19/49/1 20/50/1
f 20/51/2 19/52/2 21/53/2 22/54/2
f 23/55/8 24/56/8 16/57/8 15/58/8
f 18/59/5 20/60/5 22/54/5 23/61/5 15/62/5
f 19/63/6 17/64/6 16/65/6 24/66/6 21/67/6
f 22/68/3 21/69/3 24/56/8 23/55/8
usemtl Material.016
f 12/70/3 11/71/3 25/72/3 26/73/3
f 11/74/2 12/75/2 18/76/2 17/77/2
f 11/78/6 17/79/6 27/80/6 25/81/6
f 27/82/4 28/83/4 26/84/4 25/85/4
f 12/86/5 26/84/5 28/87/5 18/88/5
usemtl Material.014
f 28/89/1 27/90/1 17/91/1 18/92/1
