# Blender v2.93.3 OBJ File: 'cave.blend'
# www.blender.org
mtllib cave.mtl
o cave_entrance_Circle.004
v 207.744308 6.440882 2.977903
v 207.744308 17.461700 2.977905
v 207.744308 18.987642 2.827468
v 207.744308 20.454941 2.381934
v 207.744308 21.807213 1.658428
v 207.744308 22.992489 0.684753
v 207.744308 23.965218 -0.501675
v 207.744308 24.688023 -1.855260
v 207.744308 25.133121 -3.323985
v 207.726166 25.300777 -5.036313
v 207.726166 6.464177 -5.041384
v 207.708038 6.475614 -13.073273
v 207.708023 25.167852 -6.777497
v 207.708023 24.722754 -8.244796
v 207.708023 23.999949 -9.597068
v 207.708023 23.027220 -10.782344
v 207.708023 21.841944 -11.755075
v 207.708023 20.489674 -12.477876
v 207.708023 19.022373 -12.922977
v 207.708023 17.496431 -13.073271
v 205.234238 6.440883 2.984106
v 205.234238 17.461702 2.984108
v 205.234238 18.987644 2.833671
v 205.234238 20.454943 2.388138
v 205.234238 21.807215 1.664631
v 205.234238 22.992491 0.690956
v 205.234238 23.965219 -0.495472
v 205.234238 24.688025 -1.849057
v 205.234238 25.133123 -3.317782
v 205.216095 25.300779 -5.030109
v 205.216095 6.464179 -5.035181
v 205.197968 6.475616 -13.067070
v 205.197952 25.167854 -6.771294
v 205.197952 24.722755 -8.238593
v 205.197952 23.999950 -9.590865
v 205.197952 23.027222 -10.776141
v 205.197952 21.841946 -11.748872
v 205.197952 20.489676 -12.471673
v 205.197952 19.022375 -12.916775
v 205.197952 17.496433 -13.067068
vt 0.400548 0.000000
vt 0.000000 0.000304
vt 0.000000 0.964922
vt 0.078143 0.957226
vt 0.153283 0.934432
vt 0.222533 0.897418
vt 0.283230 0.847604
vt 0.333044 0.786906
vt 0.370058 0.717657
vt 0.392852 0.642517
vt 0.400548 0.564374
vt 0.400548 0.000000
vt 0.400548 0.564374
vt 0.392852 0.642517
vt 0.370058 0.717657
vt 0.333044 0.786906
vt 0.283230 0.847604
vt 0.222533 0.897418
vt 0.153283 0.934432
vt 0.078143 0.957226
vt 0.000000 0.964922
vt 0.000000 0.000304
vt 0.400548 0.000000
vt 0.400548 0.564374
vt 0.392852 0.642517
vt 0.370058 0.717657
vt 0.333044 0.786906
vt 0.283230 0.847604
vt 0.222533 0.897418
vt 0.153283 0.934432
vt 0.078143 0.957226
vt 0.400548 0.000000
vt 0.078143 0.957226
vt 0.153283 0.934432
vt 0.222533 0.897418
vt 0.283230 0.847604
vt 0.333044 0.786906
vt 0.370058 0.717657
vt 0.392852 0.642517
vt 0.400548 0.564374
vn 1.0000 -0.0004 -0.0025
vn -1.0000 0.0004 0.0025
vn 0.0016 0.7733 0.6340
vn 0.0012 0.8821 0.4710
vn 0.0007 0.9570 0.2900
vn 0.0025 -0.0000 1.0000
vn 0.0002 0.9952 0.0974
vn 0.0025 0.0981 0.9952
vn -0.0000 -1.0000 -0.0029
vn 0.0024 0.2905 0.9569
vn 0.0022 0.4718 0.8817
vn 0.0019 0.6348 0.7727
vn 1.0000 0.0004 -0.0025
vn -1.0000 -0.0004 0.0025
vn -0.0012 0.8819 -0.4714
vn -0.0016 0.7730 -0.6344
vn -0.0019 0.6344 -0.7730
vn -0.0022 0.4714 -0.8819
vn -0.0024 0.2903 -0.9569
vn -0.0000 -1.0000 -0.0014
vn -0.0025 0.0000 -1.0000
vn -0.0002 0.9971 -0.0761
vn -0.0025 0.0980 -0.9952
vn -0.0007 0.9569 -0.2903
usemtl Material.032
s off
f 1/1/1 11/2/1 10/3/1 9/4/1 8/5/1 7/6/1 6/7/1 5/8/1 4/9/1 3/10/1 2/11/1
f 21/12/2 22/13/2 23/14/2 24/15/2 25/16/2 26/17/2 27/18/2 28/19/2 29/20/2 30/21/2 31/22/2
f 6/7/3 7/6/3 27/18/3 26/17/3
f 7/6/4 8/5/4 28/19/4 27/18/4
f 8/5/5 9/4/5 29/20/5 28/19/5
f 1/1/6 2/11/6 22/13/6 21/12/6
f 9/4/7 10/3/7 30/21/7 29/20/7
f 2/11/8 3/10/8 23/14/8 22/13/8
f 11/2/9 1/1/9 21/12/9 31/22/9
f 3/10/10 4/9/10 24/15/10 23/14/10
f 4/9/11 5/8/11 25/16/11 24/15/11
f 5/8/12 6/7/12 26/17/12 25/16/12
usemtl Material.030
f 12/23/13 20/24/13 19/25/13 18/26/13 17/27/13 16/28/13 15/29/13 14/30/13 13/31/13 10/3/13 11/2/13
f 32/32/14 31/22/14 30/21/14 33/33/14 34/34/14 35/35/14 36/36/14 37/37/14 38/38/14 39/39/14 40/40/14
f 14/30/15 15/29/15 35/35/15 34/34/15
f 15/29/16 16/28/16 36/36/16 35/35/16
f 16/28/17 17/27/17 37/37/17 36/36/17
f 17/27/18 18/26/18 38/38/18 37/37/18
f 18/26/19 19/25/19 39/39/19 38/38/19
f 12/23/20 11/2/20 31/22/20 32/32/20
f 20/24/21 12/23/21 32/32/21 40/40/21
f 10/3/22 13/31/22 33/33/22 30/21/22
f 19/25/23 20/24/23 40/40/23 39/39/23
f 13/31/24 14/30/24 34/34/24 33/33/24
