# Blender v2.93.3 OBJ File: 'floor.blend'
# www.blender.org
mtllib floor.mtl
o floor_Plane
v -253.006729 6.383519 225.358612
v 209.639145 6.383519 225.358612
v -253.006729 6.383519 -237.287262
v 209.639145 6.383519 -237.287262
v -253.006729 6.383519 225.358612
v 209.639145 6.383519 225.358612
vt -14.221903 27.086851
vt 12.364949 27.086855
vt 12.364952 0.500000
vt -14.221903 0.500000
vt -14.221903 27.086851
vt 12.364949 27.086855
vn 0.0000 0.7071 0.7071
vn 0.4514 0.2251 0.8634
vn 0.5773 0.5774 -0.5774
vn -0.5774 0.5774 -0.5773
vn 0.0000 0.0000 1.0000
usemtl Material.001
s 1
f 1/1/1 2/2/2 4/3/3
f 1/1/1 4/3/3 3/4/4
f 2/2/2 1/1/1 5/5/5
f 2/2/2 5/5/5 6/6/5
