# Blender v2.93.3 OBJ File: 'path.blend'
# www.blender.org
mtllib path.mtl
o Cube_Cube.011
v 44.753433 -1.209281 -1.682091
v 44.753433 6.953751 -1.682090
v 44.753433 6.953752 -9.845120
v 44.753433 -1.209279 -9.845121
v 205.617157 6.953752 -9.845120
v 205.617157 -1.209279 -9.845121
v 205.617157 6.953751 -1.682090
v 205.617157 -1.209281 -1.682091
vt 1.730265 -0.488626
vt 1.730264 0.344408
vt 1.238159 0.344407
vt 1.238159 -0.488626
vt -0.238159 2.156786
vt -0.730265 2.156786
vt -0.730265 -1.321659
vt -0.238159 -1.321659
vt 1.730265 -1.321659
vt 1.730264 -0.488626
vt 1.238159 -0.488626
vt 1.238159 -1.321659
vt 0.746053 2.156787
vt 0.253947 2.156787
vt 0.253947 -1.321659
vt 0.746053 -1.321659
vt 0.253947 -1.321659
vt 0.253947 2.156787
vt -0.238159 2.156787
vt -0.238159 -1.321659
vt 1.238159 -1.321659
vt 1.238159 2.156786
vt 0.746053 2.156786
vt 0.746053 -1.321659
vn -1.0000 -0.0000 0.0000
vn 0.0000 0.0000 -1.0000
vn 1.0000 0.0000 0.0000
vn 0.0000 -0.0000 1.0000
vn 0.0000 -1.0000 -0.0000
vn 0.0000 1.0000 0.0000
usemtl Material.029
s off
f 1/1/1 2/2/1 3/3/1 4/4/1
f 4/5/2 3/6/2 5/7/2 6/8/2
f 6/9/3 5/10/3 7/11/3 8/12/3
f 8/13/4 7/14/4 2/15/4 1/16/4
f 4/17/5 6/18/5 8/19/5 1/20/5
f 5/21/6 3/22/6 2/23/6 7/24/6
